<svg width="124" height="103" viewBox="0 0 124 103" fill="none" xmlns="http://www.w3.org/2000/svg">
<g filter="url(#filter0_d_1554_5275)">
<path d="M76.6655 4.40495C76.1099 5.735 74.5732 6.36624 73.2331 5.81488C71.8929 5.26351 71.2569 3.73832 71.8125 2.40827C72.368 1.07822 73.9047 0.446973 75.2449 0.998342C76.585 1.54971 77.221 3.0749 76.6655 4.40495Z" fill="#1295FF" fill-opacity="0.5"/>
<path fill-rule="evenodd" clip-rule="evenodd" d="M64.7104 13.4489C56.7556 13.4464 50.309 19.8445 50.3116 27.7395C50.3116 27.7575 50.3116 27.7755 50.3117 27.7935L44.9104 27.7936C44.9103 27.775 44.9103 27.7564 44.9103 27.7378C44.9068 16.8822 53.7708 8.08481 64.7086 8.08823C75.6464 8.09165 84.5161 16.8946 84.5196 27.7501C84.5211 32.6913 82.6855 37.206 79.6534 40.6585L75.5559 37.1629C77.775 34.6486 79.1194 31.3547 79.1183 27.7485C79.1158 19.8535 72.6651 13.4514 64.7104 13.4489ZM45.1617 30.8723C46.677 40.2385 54.8583 47.3966 64.7212 47.3997C69.5597 47.4012 73.9924 45.6805 77.4312 42.8212L73.257 39.2602C70.8683 41.0077 67.9157 42.04 64.7195 42.039C57.849 42.0369 52.1005 37.2607 50.6594 30.8721L45.1617 30.8723Z" fill="#1295FF"/>
<path fill-rule="evenodd" clip-rule="evenodd" d="M53.7299 25.033L40.1626 24.9366C39.581 24.9325 39.0723 25.247 38.8044 25.7159C38.7777 25.4592 38.7246 25.2012 38.6432 24.9454C37.9976 22.917 35.8199 21.7898 33.7791 22.4276C31.7383 23.0654 30.6073 25.2267 31.2528 27.255C31.8984 29.2834 34.0761 30.4106 36.1169 29.7728C37.4493 29.3564 38.3939 28.2906 38.7095 27.0363C38.9342 27.6072 39.4916 28.0136 40.1458 28.0183L53.3982 28.1124C53.3701 27.0502 53.4867 26.0172 53.7299 25.033ZM73.1825 35.5099C73.8705 34.7372 74.4549 33.8699 74.915 32.9309L85.875 42.2916C86.2643 42.6241 86.4473 43.1064 86.4117 43.5784C87.0395 43.0634 87.8357 42.7405 88.7124 42.7046C90.8502 42.6171 92.6575 44.2689 92.7492 46.3941C92.841 48.5192 91.1823 50.313 89.0446 50.4005C86.9068 50.4881 85.0995 48.8362 85.0078 46.7111C84.9801 46.071 85.1113 45.461 85.3665 44.9186C84.8649 45.0872 84.2887 44.9955 83.8574 44.6271L73.1825 35.5099Z" fill="#1295FF"/>
<path fill-rule="evenodd" clip-rule="evenodd" d="M64.9215 33.4767C67.9016 33.3523 70.336 30.7882 70.2011 27.6043C70.0663 24.4204 67.4236 22.0681 64.4435 22.1924C61.4634 22.3168 59.0291 24.8809 59.1639 28.0648C59.2988 31.2487 61.9414 33.601 64.9215 33.4767ZM65.102 37.7377C70.521 37.5116 74.7261 32.8945 74.4944 27.4252C74.2627 21.9558 69.682 17.7053 64.263 17.9314C58.8441 18.1575 54.639 22.7746 54.8707 28.2439C55.1023 33.7133 59.6831 37.9638 65.102 37.7377Z" fill="#1295FF"/>
<path fill-rule="evenodd" clip-rule="evenodd" d="M73.8566 6.78632C74.0092 6.38908 73.7153 5.90354 73.2002 5.70184C72.6851 5.50014 72.1439 5.65865 71.9913 6.05589L67.8945 16.72C68.5412 16.9084 69.1651 17.1535 69.7601 17.4497L73.8566 6.78632Z" fill="url(#paint0_linear_1554_5275)"/>
<g filter="url(#filter1_f_1554_5275)">
<path d="M109.629 79.4706C109.629 79.9975 109.972 80.4321 110.657 80.7746C111.368 81.0907 112.224 81.3804 113.225 81.6438C114.226 81.8809 115.227 82.197 116.228 82.5921C117.229 82.9609 118.072 83.5931 118.757 84.4888C119.468 85.3844 119.824 86.5039 119.824 87.8473C119.824 89.8757 119.06 91.443 117.532 92.5494C116.03 93.6294 114.147 94.1694 111.882 94.1694C107.825 94.1694 105.059 92.602 103.584 89.4674L108.009 86.9781C108.589 88.6903 109.88 89.5464 111.882 89.5464C113.699 89.5464 114.608 88.98 114.608 87.8473C114.608 87.3205 114.252 86.899 113.541 86.5829C112.856 86.2405 112.013 85.9376 111.012 85.6741C110.011 85.4107 109.01 85.0814 108.009 84.6863C107.008 84.2912 106.152 83.6722 105.441 82.8292C104.756 81.9599 104.414 80.8799 104.414 79.5892C104.414 77.6399 105.125 76.112 106.547 75.0057C107.996 73.873 109.787 73.3066 111.921 73.3066C113.528 73.3066 114.99 73.6754 116.307 74.413C117.624 75.1242 118.665 76.1516 119.429 77.495L115.082 79.8658C114.45 78.5223 113.396 77.8506 111.921 77.8506C111.263 77.8506 110.709 77.9955 110.262 78.2852C109.84 78.575 109.629 78.9701 109.629 79.4706Z" fill="#1295FF"/>
<path d="M95.3163 73.8604H100.413V93.6167H95.3163V91.404C94.0782 93.2479 92.1157 94.1699 89.4288 94.1699C87.2688 94.1699 85.4776 93.4455 84.0551 91.9967C82.659 90.5479 81.9609 88.5459 81.9609 85.9908V73.8604H87.0581V85.3586C87.0581 86.6757 87.4137 87.6898 88.1249 88.401C88.8362 89.0859 89.7845 89.4284 90.9698 89.4284C92.2869 89.4284 93.3406 89.0201 94.1309 88.2035C94.9211 87.3869 95.3163 86.162 95.3163 84.5288V73.8604Z" fill="#1295FF"/>
<path d="M73.2905 77.2581C73.7647 75.9937 74.5417 75.0454 75.6218 74.4132C76.7281 73.7809 77.953 73.4648 79.2964 73.4648V79.1547C77.7423 78.9703 76.3462 79.2864 75.1081 80.103C73.8964 80.9196 73.2905 82.2762 73.2905 84.1728V93.6164H68.1934V73.86H73.2905V77.2581Z" fill="#1295FF"/>
<path d="M58.4738 73.8598H63.571V93.6162H58.4738V91.2849C56.946 93.2079 54.7991 94.1694 52.0332 94.1694C49.3991 94.1694 47.1337 93.1684 45.237 91.1664C43.3668 89.1381 42.4316 86.662 42.4316 83.738C42.4316 80.8141 43.3668 78.3511 45.237 76.3491C47.1337 74.3208 49.3991 73.3066 52.0332 73.3066C54.7991 73.3066 56.946 74.2681 58.4738 76.1911V73.8598ZM49.0698 87.7683C50.0971 88.7956 51.401 89.3093 52.9815 89.3093C54.5621 89.3093 55.866 88.7956 56.8933 87.7683C57.947 86.7146 58.4738 85.3712 58.4738 83.738C58.4738 82.1048 57.947 80.7746 56.8933 79.7472C55.866 78.6935 54.5621 78.1667 52.9815 78.1667C51.401 78.1667 50.0971 78.6935 49.0698 79.7472C48.0424 80.7746 47.5288 82.1048 47.5288 83.738C47.5288 85.3712 48.0424 86.7146 49.0698 87.7683Z" fill="#1295FF"/>
<path d="M33.6973 93.6168V64.7725H38.7944V93.6168H33.6973Z" fill="#1295FF"/>
<path d="M18.3826 94.1706C14.2206 94.1706 10.783 92.7876 8.06981 90.0217C5.3566 87.2558 4 83.8446 4 79.7879C4 75.7049 5.3566 72.2937 8.06981 69.5541C10.783 66.7882 14.2206 65.4053 18.3826 65.4053C20.8851 65.4053 23.19 65.998 25.2974 67.1833C27.4311 68.3424 29.0906 69.9229 30.276 71.9249L25.574 74.6513C24.8891 73.4132 23.9144 72.4517 22.65 71.7668C21.3856 71.0556 19.9632 70.7 18.3826 70.7C15.6958 70.7 13.5226 71.5429 11.863 73.2288C10.2298 74.9147 9.41325 77.1011 9.41325 79.7879C9.41325 82.4484 10.2298 84.6216 11.863 86.3075C13.5226 87.9934 15.6958 88.8363 18.3826 88.8363C19.9632 88.8363 21.3856 88.4939 22.65 87.809C23.9408 87.0978 24.9154 86.1363 25.574 84.9246L30.276 87.651C29.0906 89.6529 27.4442 91.2466 25.3369 92.432C23.2295 93.591 20.9115 94.1706 18.3826 94.1706Z" fill="#1295FF"/>
</g>
<path d="M109.629 79.4706C109.629 79.9975 109.972 80.4321 110.657 80.7746C111.368 81.0907 112.224 81.3804 113.225 81.6438C114.226 81.8809 115.227 82.197 116.228 82.5921C117.229 82.9609 118.072 83.5931 118.757 84.4888C119.468 85.3844 119.824 86.5039 119.824 87.8473C119.824 89.8757 119.06 91.443 117.532 92.5494C116.03 93.6294 114.147 94.1694 111.882 94.1694C107.825 94.1694 105.059 92.602 103.584 89.4674L108.009 86.9781C108.589 88.6903 109.88 89.5464 111.882 89.5464C113.699 89.5464 114.608 88.98 114.608 87.8473C114.608 87.3205 114.252 86.899 113.541 86.5829C112.856 86.2405 112.013 85.9376 111.012 85.6741C110.011 85.4107 109.01 85.0814 108.009 84.6863C107.008 84.2912 106.152 83.6722 105.441 82.8292C104.756 81.9599 104.414 80.8799 104.414 79.5892C104.414 77.6399 105.125 76.112 106.547 75.0057C107.996 73.873 109.787 73.3066 111.921 73.3066C113.528 73.3066 114.99 73.6754 116.307 74.413C117.624 75.1242 118.665 76.1516 119.429 77.495L115.082 79.8658C114.45 78.5223 113.396 77.8506 111.921 77.8506C111.263 77.8506 110.709 77.9955 110.262 78.2852C109.84 78.575 109.629 78.9701 109.629 79.4706Z" fill="#1295FF"/>
<path d="M95.3163 73.8604H100.413V93.6167H95.3163V91.404C94.0782 93.2479 92.1157 94.1699 89.4288 94.1699C87.2688 94.1699 85.4776 93.4455 84.0551 91.9967C82.659 90.5479 81.9609 88.5459 81.9609 85.9908V73.8604H87.0581V85.3586C87.0581 86.6757 87.4137 87.6898 88.1249 88.401C88.8362 89.0859 89.7845 89.4284 90.9698 89.4284C92.2869 89.4284 93.3406 89.0201 94.1309 88.2035C94.9211 87.3869 95.3163 86.162 95.3163 84.5288V73.8604Z" fill="#1295FF"/>
<path d="M73.2905 77.2581C73.7647 75.9937 74.5417 75.0454 75.6218 74.4132C76.7281 73.7809 77.953 73.4648 79.2964 73.4648V79.1547C77.7423 78.9703 76.3462 79.2864 75.1081 80.103C73.8964 80.9196 73.2905 82.2762 73.2905 84.1728V93.6164H68.1934V73.86H73.2905V77.2581Z" fill="#1295FF"/>
<path d="M58.4738 73.8598H63.571V93.6162H58.4738V91.2849C56.946 93.2079 54.7991 94.1694 52.0332 94.1694C49.3991 94.1694 47.1337 93.1684 45.237 91.1664C43.3668 89.1381 42.4316 86.662 42.4316 83.738C42.4316 80.8141 43.3668 78.3511 45.237 76.3491C47.1337 74.3208 49.3991 73.3066 52.0332 73.3066C54.7991 73.3066 56.946 74.2681 58.4738 76.1911V73.8598ZM49.0698 87.7683C50.0971 88.7956 51.401 89.3093 52.9815 89.3093C54.5621 89.3093 55.866 88.7956 56.8933 87.7683C57.947 86.7146 58.4738 85.3712 58.4738 83.738C58.4738 82.1048 57.947 80.7746 56.8933 79.7472C55.866 78.6935 54.5621 78.1667 52.9815 78.1667C51.401 78.1667 50.0971 78.6935 49.0698 79.7472C48.0424 80.7746 47.5288 82.1048 47.5288 83.738C47.5288 85.3712 48.0424 86.7146 49.0698 87.7683Z" fill="#1295FF"/>
<path d="M33.6973 93.6168V64.7725H38.7944V93.6168H33.6973Z" fill="#1295FF"/>
<path d="M18.3826 94.1706C14.2206 94.1706 10.783 92.7876 8.06981 90.0217C5.3566 87.2558 4 83.8446 4 79.7879C4 75.7049 5.3566 72.2937 8.06981 69.5541C10.783 66.7882 14.2206 65.4053 18.3826 65.4053C20.8851 65.4053 23.19 65.998 25.2974 67.1833C27.4311 68.3424 29.0906 69.9229 30.276 71.9249L25.574 74.6513C24.8891 73.4132 23.9144 72.4517 22.65 71.7668C21.3856 71.0556 19.9632 70.7 18.3826 70.7C15.6958 70.7 13.5226 71.5429 11.863 73.2288C10.2298 74.9147 9.41325 77.1011 9.41325 79.7879C9.41325 82.4484 10.2298 84.6216 11.863 86.3075C13.5226 87.9934 15.6958 88.8363 18.3826 88.8363C19.9632 88.8363 21.3856 88.4939 22.65 87.809C23.9408 87.0978 24.9154 86.1363 25.574 84.9246L30.276 87.651C29.0906 89.6529 27.4442 91.2466 25.3369 92.432C23.2295 93.591 20.9115 94.1706 18.3826 94.1706Z" fill="#1295FF"/>
</g>
<defs>
<filter id="filter0_d_1554_5275" x="0" y="0" width="123.824" height="102.171" filterUnits="userSpaceOnUse" color-interpolation-filters="sRGB">
<feFlood flood-opacity="0" result="BackgroundImageFix"/>
<feColorMatrix in="SourceAlpha" type="matrix" values="0 0 0 0 0 0 0 0 0 0 0 0 0 0 0 0 0 0 127 0" result="hardAlpha"/>
<feOffset dy="4"/>
<feGaussianBlur stdDeviation="2"/>
<feComposite in2="hardAlpha" operator="out"/>
<feColorMatrix type="matrix" values="0 0 0 0 0 0 0 0 0 0 0 0 0 0 0 0 0 0 0.25 0"/>
<feBlend mode="normal" in2="BackgroundImageFix" result="effect1_dropShadow_1554_5275"/>
<feBlend mode="normal" in="SourceGraphic" in2="effect1_dropShadow_1554_5275" result="shape"/>
</filter>
<filter id="filter1_f_1554_5275" x="0" y="60.7725" width="123.824" height="37.3984" filterUnits="userSpaceOnUse" color-interpolation-filters="sRGB">
<feFlood flood-opacity="0" result="BackgroundImageFix"/>
<feBlend mode="normal" in="SourceGraphic" in2="BackgroundImageFix" result="shape"/>
<feGaussianBlur stdDeviation="2" result="effect1_foregroundBlur_1554_5275"/>
</filter>
<linearGradient id="paint0_linear_1554_5275" x1="69.6776" y1="18.416" x2="74.7226" y2="4.00907" gradientUnits="userSpaceOnUse">
<stop stop-color="#1295FF"/>
<stop offset="1" stop-color="#1295FF" stop-opacity="0.5"/>
</linearGradient>
</defs>
</svg>
