<svg width="308" height="82" viewBox="0 0 308 82" fill="none" xmlns="http://www.w3.org/2000/svg">
<path d="M66.4128 9.08978C65.6064 11.0205 63.3755 11.9369 61.4301 11.1365C59.4847 10.3361 58.5614 8.12205 59.3679 6.19128C60.1744 4.26051 62.4052 3.34416 64.3506 4.14456C66.296 4.94496 67.2193 7.15901 66.4128 9.08978Z" fill="#1295FF" fill-opacity="0.5"/>
<path fill-rule="evenodd" clip-rule="evenodd" d="M49.0587 22.2176C37.5111 22.2139 28.1529 31.5018 28.1566 42.9625C28.1566 42.9885 28.1566 43.0144 28.1567 43.0403L20.3159 43.0405C20.3158 43.0137 20.3158 42.9869 20.3158 42.9601C20.3107 27.2016 33.1783 14.4308 49.0562 14.4357C64.9341 14.4407 77.8098 27.2195 77.8149 42.978C77.8172 50.1515 75.1521 56.7058 70.7498 61.7177L64.8016 56.6433C68.0237 52.9933 69.9758 48.2112 69.9741 42.9756C69.9704 31.5148 60.6063 22.2212 49.0587 22.2176ZM20.6807 47.5096C22.88 61.1065 34.7566 71.4979 49.0744 71.5024C56.0977 71.5046 62.532 69.0071 67.5237 64.8571L61.4642 59.6877C57.9968 62.2239 53.7111 63.722 49.072 63.7206C39.0981 63.7174 30.7531 56.7838 28.6614 47.5094L20.6807 47.5096Z" fill="#1295FF"/>
<path fill-rule="evenodd" clip-rule="evenodd" d="M33.122 39.0372L13.4283 38.8974C12.5835 38.8914 11.8449 39.3485 11.456 40.0296C11.4174 39.6566 11.3402 39.2819 11.2219 38.9102C10.2848 35.9658 7.1235 34.3294 4.16099 35.2552C1.19847 36.1811 -0.443442 39.3186 0.493674 42.263C1.43079 45.2075 4.59207 46.8438 7.55458 45.918C9.48916 45.3134 10.8606 43.7657 11.3184 41.9445C11.6444 42.7737 12.4538 43.3642 13.4038 43.3709L32.6406 43.5075C32.5998 41.9656 32.7689 40.466 33.122 39.0372ZM61.3602 54.2461C62.3591 53.1245 63.2076 51.8656 63.8756 50.5025L79.7856 64.0908C80.3504 64.5732 80.6161 65.273 80.5647 65.958C81.476 65.2105 82.6316 64.7419 83.9041 64.6898C87.0074 64.5628 89.6311 66.9606 89.7642 70.0456C89.8974 73.1306 87.4896 75.7345 84.3863 75.8616C81.283 75.9887 78.6594 73.5908 78.5263 70.5058C78.4862 69.5769 78.6764 68.6916 79.0467 67.9045C78.3187 68.149 77.4826 68.0158 76.8567 67.4812L61.3602 54.2461Z" fill="#1295FF"/>
<path fill-rule="evenodd" clip-rule="evenodd" d="M49.3634 51.2933C53.6895 51.1128 57.2234 47.3905 57.0276 42.7687C56.8318 38.1468 52.9956 34.732 48.6696 34.9125C44.3435 35.093 40.8096 38.8153 41.0054 43.4372C41.2012 48.059 45.0374 51.4738 49.3634 51.2933ZM49.6255 57.4788C57.4919 57.1506 63.5963 50.4482 63.26 42.5086C62.9237 34.569 56.274 28.3988 48.4075 28.727C40.5411 29.0552 34.4367 35.7576 34.773 43.6972C35.1093 51.6368 41.759 57.8071 49.6255 57.4788Z" fill="#1295FF"/>
<path fill-rule="evenodd" clip-rule="evenodd" d="M62.3358 12.5471C62.5574 11.9705 62.1308 11.2656 61.383 10.9728C60.6353 10.68 59.8496 10.9101 59.628 11.4868L53.6813 26.9665C54.6201 27.2399 55.5257 27.5956 56.3896 28.0257L62.3358 12.5471Z" fill="url(#paint0_linear_1583_1900)"/>
<path d="M122.82 65.9622C116.863 65.9622 112.144 64.3127 108.662 61.0137C105.18 57.6689 103.438 52.9037 103.438 46.7181V35.1717C103.438 28.9861 105.18 24.2438 108.662 20.9448C112.144 17.6 116.863 15.9276 122.82 15.9276C128.731 15.9276 133.29 17.5542 136.497 20.8073C139.75 24.0147 141.377 28.4362 141.377 34.072V34.4844H132.442V33.7971C132.442 30.9563 131.64 28.6195 130.036 26.7868C128.479 24.954 126.073 24.0376 122.82 24.0376C119.613 24.0376 117.093 25.0227 115.26 26.9929C113.427 28.9632 112.511 31.6436 112.511 35.0342V46.8556C112.511 50.2004 113.427 52.8808 115.26 54.8969C117.093 56.8671 119.613 57.8522 122.82 57.8522C126.073 57.8522 128.479 56.9358 130.036 55.103C131.64 53.2245 132.442 50.8877 132.442 48.0927V46.8556H141.377V47.8178C141.377 53.4536 139.75 57.898 136.497 61.1512C133.29 64.3585 128.731 65.9622 122.82 65.9622ZM149.044 65V16.8898H157.704V65H149.044ZM177.884 65.9622C175.456 65.9622 173.279 65.5498 171.355 64.7251C169.43 63.8545 167.896 62.6174 166.75 61.0137C165.65 59.3642 165.101 57.3711 165.101 55.0343C165.101 52.6975 165.65 50.7502 166.75 49.1924C167.896 47.5887 169.453 46.3974 171.424 45.6185C173.44 44.7937 175.731 44.3813 178.296 44.3813H187.644V42.4569C187.644 40.8533 187.14 39.5474 186.132 38.5394C185.124 37.4855 183.52 36.9586 181.321 36.9586C179.167 36.9586 177.563 37.4626 176.51 38.4707C175.456 39.4329 174.768 40.6929 174.448 42.2507L166.475 39.5703C167.025 37.8292 167.896 36.2484 169.087 34.828C170.324 33.3618 171.951 32.1934 173.967 31.3229C176.028 30.4065 178.526 29.9483 181.458 29.9483C185.948 29.9483 189.499 31.0709 192.111 33.316C194.723 35.5611 196.029 38.8143 196.029 43.0755V55.7903C196.029 57.1649 196.67 57.8522 197.953 57.8522H200.702V65H194.929C193.234 65 191.836 64.5876 190.736 63.7629C189.637 62.9381 189.087 61.8385 189.087 60.4639V60.3952H187.781C187.598 60.945 187.185 61.6781 186.544 62.5945C185.902 63.4651 184.894 64.244 183.52 64.9313C182.145 65.6186 180.267 65.9622 177.884 65.9622ZM179.396 58.9519C181.825 58.9519 183.795 58.2875 185.307 56.9587C186.865 55.5841 187.644 53.7743 187.644 51.5291V50.8419H178.915C177.311 50.8419 176.051 51.1855 175.135 51.8728C174.219 52.5601 173.76 53.5223 173.76 54.7594C173.76 55.9965 174.241 57.0045 175.204 57.7835C176.166 58.5624 177.563 58.9519 179.396 58.9519ZM207.034 65V30.9105H215.556V34.7593H216.793C217.297 33.3847 218.122 32.3767 219.267 31.7352C220.459 31.0938 221.833 30.773 223.391 30.773H227.515V38.4707H223.254C221.054 38.4707 219.245 39.0663 217.824 40.2576C216.404 41.4031 215.694 43.19 215.694 45.6185V65H207.034ZM247.273 65.5498C244.616 65.5498 242.279 64.9542 240.263 63.7629C238.293 62.5258 236.758 60.8304 235.658 58.6769C234.559 56.5234 234.009 54.0492 234.009 51.2542V30.9105H242.669V50.5669C242.669 53.1328 243.287 55.0572 244.524 56.3402C245.807 57.6231 247.617 58.2646 249.954 58.2646C252.611 58.2646 254.673 57.394 256.139 55.6529C257.606 53.8659 258.339 51.3917 258.339 48.2302V30.9105H266.999V65H258.476V60.5326H257.239C256.689 61.6781 255.658 62.8007 254.146 63.9003C252.634 65 250.343 65.5498 247.273 65.5498ZM290.793 65.9622C286.349 65.9622 282.706 65 279.865 63.0756C277.025 61.1512 275.306 58.402 274.711 54.8281L282.683 52.7663C283.004 54.3699 283.531 55.63 284.264 56.5464C285.043 57.4627 285.982 58.1271 287.082 58.5395C288.227 58.906 289.465 59.0893 290.793 59.0893C292.809 59.0893 294.298 58.7457 295.261 58.0584C296.223 57.3253 296.704 56.4318 296.704 55.378C296.704 54.3241 296.246 53.5223 295.329 52.9724C294.413 52.3768 292.947 51.8957 290.931 51.5291L289.006 51.1855C286.624 50.7273 284.447 50.1087 282.477 49.3298C280.507 48.5051 278.926 47.3825 277.735 45.9621C276.543 44.5417 275.948 42.7089 275.948 40.4638C275.948 37.0732 277.185 34.4844 279.659 32.6974C282.133 30.8647 285.387 29.9483 289.419 29.9483C293.222 29.9483 296.383 30.7959 298.903 32.4912C301.423 34.1866 303.073 36.4088 303.852 39.1579L295.81 41.6322C295.444 39.8911 294.688 38.6539 293.542 37.9208C292.443 37.1877 291.068 36.8212 289.419 36.8212C287.769 36.8212 286.509 37.119 285.639 37.7146C284.768 38.2645 284.333 39.0434 284.333 40.0514C284.333 41.1511 284.791 41.9758 285.707 42.5257C286.624 43.0297 287.861 43.4191 289.419 43.6941L291.343 44.0377C293.909 44.4959 296.223 45.1144 298.285 45.8934C300.392 46.6265 302.042 47.7032 303.233 49.1236C304.47 50.4982 305.089 52.3768 305.089 54.7594C305.089 58.3333 303.783 61.1054 301.171 63.0756C298.605 65 295.146 65.9622 290.793 65.9622Z" fill="#1295FF"/>
<defs>
<linearGradient id="paint0_linear_1583_1900" x1="56.2699" y1="29.4286" x2="63.5932" y2="8.5156" gradientUnits="userSpaceOnUse">
<stop stop-color="#1295FF"/>
<stop offset="1" stop-color="#1295FF" stop-opacity="0.5"/>
</linearGradient>
</defs>
</svg>
